<svg xmlns="http://www.w3.org/2000/svg" version="1.1" xmlns:xlink="http://www.w3.org/1999/xlink" xmlns:svgjs="http://svgjs.dev/svgjs" width="1500" height="1004" viewBox="0 0 1500 1004"><g transform="matrix(1,0,0,1,-0.8908119911116046,1.8136931930155242)"><svg viewBox="0 0 369 247" data-background-color="#161618" preserveAspectRatio="xMidYMid meet" height="1004" width="1500" xmlns="http://www.w3.org/2000/svg" xmlns:xlink="http://www.w3.org/1999/xlink"><g id="tight-bounds" transform="matrix(1,0,0,1,0.21913974981345063,-0.027187185015037585)"><svg viewBox="0 0 368.5617205003731 247.2" height="247.2" width="368.5617205003731"><g><svg viewBox="0 0 397.4975999999999 266.6077382821977" height="247.2" width="368.5617205003731"><g><rect width="397.4975999999999" height="8.165842897582415" x="0" y="146.5158927472527" fill="#ffffff" opacity="1" stroke-width="0" stroke="transparent" fill-opacity="1" class="rect-yte-0" data-fill-palette-color="secondary" rx="1%" id="yte-0" data-palette-color="#ffffff"></rect></g><g transform="matrix(1,0,0,1,0.9887999999999693,176.0582877327472)"><svg viewBox="0 0 395.52 90.54945054945053" height="90.54945054945053" width="395.52"><g id="textblocktransform"><svg viewBox="0 0 395.52 90.54945054945053" height="90.54945054945053" width="395.52" id="textblock"><g><svg viewBox="0 0 395.52 90.54945054945053" height="90.54945054945053" width="395.52"><g transform="matrix(1,0,0,1,0,0)"><svg width="395.52" viewBox="1.05 -37.5 218.38 50" height="90.54945054945053" data-palette-color="#ffffff"><path d="M1.05-34.05L1.05-35 16-35Q22.95-35 26.43-33.13 29.9-31.25 29.9-26.8L29.9-26.8Q29.9-19.95 21.65-18.6L21.65-18.6 21.65-18.5Q31.65-17.25 31.65-9.8L31.65-9.8Q31.65-4.35 27.55-2.18 23.45 0 15.75 0L15.75 0 1.05 0 1.05-0.95 4.3-0.95 4.3-34.05 1.05-34.05ZM15.2-17.7L14.05-17.7 14.05-0.95 16.4-0.95Q19.15-0.95 20.25-2.85 21.35-4.75 21.35-8.45L21.35-8.45 21.35-11.1Q21.35-14.4 20-16.05 18.65-17.7 15.2-17.7L15.2-17.7ZM15.65-34.05L14.05-34.05 14.05-18.65 15.35-18.65Q17.95-18.65 18.98-20.23 20-21.8 20-25.05L20-25.05 20-27.4Q20-31.1 19.1-32.58 18.2-34.05 15.65-34.05L15.65-34.05ZM45.45-11.75L45.45-11.75 46.9-11.75 46.9-15.6Q46.9-20.35 46.37-21.98 45.85-23.6 44.35-23.6L44.35-23.6Q43.45-23.6 42.72-23.13 42-22.65 42-21.83 42-21 42.3-20.15L42.3-20.15 43.55-20.15Q43.95-19.1 43.95-17.63 43.95-16.15 42.7-15.08 41.45-14 39.55-14L39.55-14Q35.25-14 35.25-18.15L35.25-18.15Q35.25-24.3 45.7-24.3L45.7-24.3Q51.65-24.3 53.92-22.28 56.2-20.25 56.2-14.85L56.2-14.85 56.2-4.7Q56.2-2.1 57.65-2.1L57.65-2.1Q59.35-2.1 59.65-7.25L59.65-7.25 60.4-7.2Q60.2-2.8 58.75-1.15 57.3 0.5 54 0.5L54 0.5Q48 0.5 47.1-3.2L47.1-3.2Q46.45-1.3 45.15-0.4 43.85 0.5 41.35 0.5L41.35 0.5Q33.95 0.5 33.95-5.55L33.95-5.55Q33.95-9.1 36.77-10.43 39.6-11.75 45.45-11.75ZM43.45-5.6Q43.45-3 43.72-2.25 44-1.5 44.77-1.5 45.55-1.5 46.22-2.78 46.9-4.05 46.9-6.3L46.9-6.3 46.9-10.95 46.55-10.95Q43.45-10.95 43.45-6.4L43.45-6.4 43.45-5.6ZM62.65-23.8L83.65-23.8 83.65-22.9 71.8-0.9 72.45-0.9Q76.65-0.9 79.05-3.1 81.45-5.3 82.8-10.25L82.8-10.25 83.5-10.25 82.7 0 61.7 0 61.7-0.75 73.75-22.9 73.2-22.9Q68.15-22.9 66.17-21.25 64.2-19.6 62.65-14.2L62.65-14.2 62-14.2 62.65-23.8ZM97.39-11.75L97.39-11.75 98.84-11.75 98.84-15.6Q98.84-20.35 98.32-21.98 97.79-23.6 96.29-23.6L96.29-23.6Q95.39-23.6 94.67-23.13 93.94-22.65 93.94-21.83 93.94-21 94.24-20.15L94.24-20.15 95.49-20.15Q95.89-19.1 95.89-17.63 95.89-16.15 94.64-15.08 93.39-14 91.49-14L91.49-14Q87.19-14 87.19-18.15L87.19-18.15Q87.19-24.3 97.64-24.3L97.64-24.3Q103.59-24.3 105.87-22.28 108.14-20.25 108.14-14.85L108.14-14.85 108.14-4.7Q108.14-2.1 109.59-2.1L109.59-2.1Q111.29-2.1 111.59-7.25L111.59-7.25 112.34-7.2Q112.14-2.8 110.69-1.15 109.24 0.5 105.94 0.5L105.94 0.5Q99.94 0.5 99.04-3.2L99.04-3.2Q98.39-1.3 97.09-0.4 95.79 0.5 93.29 0.5L93.29 0.5Q85.89 0.5 85.89-5.55L85.89-5.55Q85.89-9.1 88.72-10.43 91.54-11.75 97.39-11.75ZM95.39-5.6Q95.39-3 95.67-2.25 95.94-1.5 96.72-1.5 97.49-1.5 98.17-2.78 98.84-4.05 98.84-6.3L98.84-6.3 98.84-10.95 98.49-10.95Q95.39-10.95 95.39-6.4L95.39-6.4 95.39-5.6ZM129.54-22.4L129.54-22.4Q127.69-22.4 126.29-20 124.89-17.6 124.89-14.3L124.89-14.3 124.89-0.9 128.44-0.9 128.44 0 112.84 0 112.84-0.9 115.59-0.9 115.59-22.9 112.84-22.9 112.84-23.8 124.89-23.8 124.89-19Q125.54-21.55 127.39-22.93 129.24-24.3 131.59-24.3 133.94-24.3 135.42-22.98 136.89-21.65 136.89-19.23 136.89-16.8 135.79-15.5 134.69-14.2 132.42-14.2 130.14-14.2 129.07-15.7 127.99-17.2 128.79-19.85L128.79-19.85 130.59-19.85Q131.84-22.4 129.54-22.4ZM157.14-26.4L157.14-26.4 158.54-27.25Q158.84-28.8 157.34-28.8L157.34-28.8Q155.19-28.8 155.19-25.5L155.19-25.5Q155.19-24.2 155.54-22.5L155.54-22.5Q159.34-19.95 159.34-15.98 159.34-12 156.59-9.8 153.84-7.6 149.14-7.6L149.14-7.6Q147.19-7.6 145.09-8L145.09-8Q142.89-6.6 142.89-5.9 142.89-5.2 146.09-5.2L146.09-5.2 151.19-5.2Q162.54-5.2 162.54 2.95L162.54 2.95Q162.54 7.35 159.11 9.93 155.69 12.5 148.44 12.5L148.44 12.5Q136.09 12.5 136.09 7.15L136.09 7.15Q136.09 4.25 139.94 3.15L139.94 3.15 142.94 4.5Q142.54 5.95 142.54 7.25L142.54 7.25Q142.54 11.55 148.94 11.55L148.94 11.55Q152.84 11.55 154.94 10.1 157.04 8.65 157.04 6.5 157.04 4.35 155.76 3.63 154.49 2.9 150.69 2.9L150.69 2.9 145.84 2.9Q141.79 2.9 140.04 1.55 138.29 0.2 138.29-1.78 138.29-3.75 139.54-5.08 140.79-6.4 143.99-8.35L143.99-8.35Q138.19-10 138.19-15.95L138.19-15.95Q138.19-19.7 140.89-22 143.59-24.3 148.99-24.3L148.99-24.3Q152.24-24.3 154.54-23.05L154.54-23.05Q154.24-24.4 154.24-25.5L154.24-25.5Q154.24-28.3 155.74-29.55 157.24-30.8 159.09-30.8 160.94-30.8 162.06-29.83 163.19-28.85 163.19-27.15 163.19-25.45 162.29-24.63 161.39-23.8 160.11-23.8 158.84-23.8 158.01-24.48 157.19-25.15 157.14-26.4ZM146.54-17.05L146.54-17.05 146.54-14.35Q146.54-11 147.11-9.8 147.69-8.6 148.86-8.6 150.04-8.6 150.56-9.78 151.09-10.95 151.09-14.6L151.09-14.6 151.09-17.05Q151.09-20.95 150.59-22.18 150.09-23.4 148.91-23.4 147.74-23.4 147.14-22.13 146.54-20.85 146.54-17.05ZM173.94-11.75L173.94-11.75 175.39-11.75 175.39-15.6Q175.39-20.35 174.86-21.98 174.34-23.6 172.84-23.6L172.84-23.6Q171.94-23.6 171.21-23.13 170.49-22.65 170.49-21.83 170.49-21 170.79-20.15L170.79-20.15 172.04-20.15Q172.44-19.1 172.44-17.63 172.44-16.15 171.19-15.08 169.94-14 168.04-14L168.04-14Q163.74-14 163.74-18.15L163.74-18.15Q163.74-24.3 174.19-24.3L174.19-24.3Q180.14-24.3 182.41-22.28 184.69-20.25 184.69-14.85L184.69-14.85 184.69-4.7Q184.69-2.1 186.14-2.1L186.14-2.1Q187.84-2.1 188.14-7.25L188.14-7.25 188.89-7.2Q188.69-2.8 187.24-1.15 185.79 0.5 182.49 0.5L182.49 0.5Q176.49 0.5 175.59-3.2L175.59-3.2Q174.94-1.3 173.64-0.4 172.34 0.5 169.84 0.5L169.84 0.5Q162.44 0.5 162.44-5.55L162.44-5.55Q162.44-9.1 165.26-10.43 168.09-11.75 173.94-11.75ZM171.94-5.6Q171.94-3 172.21-2.25 172.49-1.5 173.26-1.5 174.04-1.5 174.71-2.78 175.39-4.05 175.39-6.3L175.39-6.3 175.39-10.95 175.04-10.95Q171.94-10.95 171.94-6.4L171.94-6.4 171.94-5.6ZM189.38-36.6L189.38-37.5 201.43-37.5 201.43-19.2Q202.23-21.5 203.88-22.9 205.53-24.3 208.88-24.3L208.88-24.3Q216.63-24.3 216.63-15.95L216.63-15.95 216.63-0.9 219.43-0.9 219.43 0 205.28 0 205.28-0.9 207.33-0.9 207.33-17.15Q207.33-20.15 206.93-21.03 206.53-21.9 205.48-21.9L205.48-21.9Q203.88-21.9 202.66-19.8 201.43-17.7 201.43-14.7L201.43-14.7 201.43-0.9 203.58-0.9 203.58 0 189.38 0 189.38-0.9 192.13-0.9 192.13-36.6 189.38-36.6Z" opacity="1" transform="matrix(1,0,0,1,0,0)" fill="#ffffff" class="wordmark-text-0" data-fill-palette-color="primary" id="text-0"></path></svg></g></svg></g></svg></g></svg></g><g transform="matrix(1,0,0,1,119.94800878431185,0)"><svg viewBox="0 0 157.60158243137622 125.13934065934063" height="125.13934065934063" width="157.60158243137622"><g><svg xmlns="http://www.w3.org/2000/svg" xmlns:xlink="http://www.w3.org/1999/xlink" version="1.1" x="8" y="0" viewBox="9.22 11.139998451500785 85.13 75.23300154849922" enable-background="new 0 0 100 100" xml:space="preserve" height="125.13934065934063" width="141.60158243137622" class="icon-icon-0" data-fill-palette-color="accent" id="icon-0"><g fill="#ffffff" data-fill-palette-color="accent"><g fill="#ffffff" data-fill-palette-color="accent"><path d="M70.611 34.62L66.412 13.002H73.12L80.113 34.62zM47.05 34.62L48.439 13.002H54.885L56.212 34.62zM23.523 34.62L30.442 13.002H37.193L32.911 34.62zM22.957 65.521V39.557C23.887 41.195 26.002 42.535 28.263 42.535 30.835 42.535 32.897 40.8 34.112 38.867 35.325 40.8 37.42 42.535 39.993 42.535 42.565 42.535 44.677 40.8 45.889 38.867 47.102 40.8 49.221 42.535 51.795 42.535 54.367 42.535 56.491 40.8 57.705 38.867 58.917 40.8 61.042 42.535 63.613 42.535 66.187 42.535 68.312 40.8 69.527 38.867 70.74 40.8 72.736 42.535 75.31 42.535 77.572 42.535 79.683 41.195 80.613 39.557V65.521zM94.25 34.62C94.26 34.62 94.27 34.39 94.23 34.26 94.169 34.07 94.049 33.94 93.91 33.82L84.18 11.92A1.12 1.12 0 0 0 83.111 11.14H20.46C19.97 11.14 19.54 11.47 19.39 11.94L9.8 33.74C9.58 33.89 9.4 34.07 9.32 34.34 9.29 34.45 9.31 34.62 9.31 34.62H9.22L9.31 35.87C9.51 38.5 12.44 42.51 16.35 42.51 17.02 42.51 17.38 42.41 18.31 45.2L18.375 86.373C20.155 86.373 46.25 86.33 46.25 86.33V76.38A5.875 5.875 0 1 1 58 76.38V86.33S82.105 86.251 85.125 86.251L85.27 45.2C86.201 42.41 86.55 42.53 87.22 42.53 91.13 42.53 94.04 38.5 94.241 35.87L94.35 34.62z" fill="#ffffff" data-fill-palette-color="accent"></path></g></g><rect x="29.5" y="46.5" width="13.5" height="12.75" fill="#ffffff" data-fill-palette-color="accent"></rect><rect x="45.375" y="46.5" width="13.5" height="12.75" fill="#ffffff" data-fill-palette-color="accent"></rect><rect x="61.25" y="46.5" width="13.5" height="12.75" fill="#ffffff" data-fill-palette-color="accent"></rect></svg></g></svg></g><g><rect width="35.08478041892718" height="8.165842897582415" y="115.97349776175821" x="277.54959121568805" fill="#ffffff" data-fill-palette-color="secondary"></rect><rect width="35.08478041892718" height="8.165842897582415" y="115.97349776175821" x="84.86322836538467" fill="#ffffff" data-fill-palette-color="secondary"></rect></g></svg></g><defs></defs></svg><rect width="368.5617205003731" height="247.2" fill="none" stroke="none" visibility="hidden"></rect></g></svg></g></svg>